<svg width="105" height="32" viewBox="0 0 105 32" fill="none" xmlns="http://www.w3.org/2000/svg">
<path d="M58.1133 7.41797V9.26562C58.1025 11.7148 58.1025 14.4648 57.3184 18.6113L54.5684 18.332C55.3203 14.6367 55.3525 11.8867 55.3633 9.58789H43.8477V7.41797H58.1133ZM42 22.8867V20.6523H48.3809V13.9277H51.1094V20.6523H59.832V22.8867H42Z" fill="white"/>
<path d="M78.4057 14.9805V17.1719H60.5737V14.9805H64.5912V12.6387C63.1625 12.0049 62.3569 11.0381 62.3569 9.78125C62.3569 7.41797 65.1391 6.01074 69.4897 6C73.808 6.01074 76.5903 7.41797 76.601 9.78125C76.5903 11.0596 75.7631 12.0371 74.3022 12.6602V14.9805H78.4057ZM62.6147 21.7051C62.6147 19.4492 65.1821 18.1924 69.4682 18.2031C73.6899 18.1924 76.2573 19.4492 76.2787 21.7051C76.2573 24.0146 73.6899 25.25 69.4682 25.25C65.1821 25.25 62.6147 24.0146 62.6147 21.7051ZM65.2143 9.78125C65.1928 10.8555 66.7289 11.4033 69.4897 11.3926C72.2182 11.4033 73.7651 10.8555 73.7651 9.78125C73.7651 8.68555 72.2182 8.10547 69.4897 8.10547C66.7289 8.10547 65.1928 8.68555 65.2143 9.78125ZM65.4077 21.7051C65.3969 22.7041 66.7612 23.209 69.4682 23.209C72.1215 23.209 73.518 22.7041 73.5287 21.7051C73.518 20.7383 72.1215 20.2764 69.4682 20.2656C66.7612 20.2764 65.3969 20.7383 65.4077 21.7051ZM67.3627 14.9805H71.5737V13.3369C70.9291 13.4229 70.2309 13.4551 69.4897 13.4551C68.727 13.4551 68.018 13.4121 67.3627 13.3369V14.9805Z" fill="white"/>
<path d="M79.7919 23.2949L79.7704 20.9531L85.3563 15.8184C86.8065 14.4326 87.5907 13.5732 87.5907 12.3379C87.5907 10.9521 86.5487 10.0928 85.12 10.1035C83.6591 10.0928 82.703 11.0166 82.7137 12.5098H79.6415C79.6307 9.46973 81.8866 7.52539 85.163 7.52539C88.493 7.52539 90.7059 9.42676 90.7059 12.123C90.7059 13.8955 89.8466 15.3457 86.6454 18.2461L84.2821 20.5449V20.6309H90.9208V23.2949H79.7919Z" fill="white"/>
<path d="M92.178 20.5449V17.9883L98.7523 7.74023H102.813V17.9453H104.789V20.5449H102.813V23.2949H99.7405V20.5449H92.178ZM95.4437 17.9453H99.7835V11.2852H99.6331L95.4437 17.8164V17.9453Z" fill="white"/>
<path d="M24.3465 15.2752C21.649 13.3858 18.1965 14.1582 16.381 16.9981C14.8651 19.3747 12.5826 19.6658 11.695 19.6658C8.81314 19.6658 6.83617 17.5744 6.25403 15.4118C6.25403 15.4118 6.24251 15.3702 6.23674 15.3524C6.23674 15.3286 6.22521 15.3049 6.21945 15.2811C5.9889 14.378 5.93126 13.9443 5.93126 12.9877C5.93126 7.80691 11.0841 2.04382 18.5078 2.04382C25.9315 2.04382 30.4561 8.00891 31.5742 11.3182C31.5569 11.2588 31.5396 11.1994 31.5166 11.14C29.3552 4.66394 23.3955 0 16.3752 0C7.53935 0 0.375 7.38507 0.375 16.4931C0.375 24.6327 6.06959 31.6079 13.9717 31.6079C20.2773 31.6079 24.5079 27.9658 26.456 22.9454C27.5223 20.2005 26.7672 16.9744 24.3465 15.2752Z" fill="#003668"/>
<path d="M31.6727 11.6403C30.739 8.40817 26.3585 2.03906 18.5083 2.03906C11.0845 2.03906 5.9375 7.80215 5.9375 12.977C5.9375 13.9395 5.99514 14.3673 6.22569 15.2704C6.1277 14.8723 6.07583 14.4802 6.07583 14.094C6.07583 8.70523 11.3151 4.96814 16.6927 4.96814C23.9781 4.96814 29.8859 11.058 29.8859 18.5678C29.8859 24.4557 26.6006 29.5534 21.8224 32.0012C27.9781 29.7078 32.3759 23.6299 32.3759 16.4943C32.3759 14.807 32.1568 13.3157 31.6727 11.6403Z" fill="#E6002D"/>
</svg>
